<svg id="Layer_1" data-name="Layer 1" xmlns="http://www.w3.org/2000/svg" viewBox="0 0 1000 1000"><defs><style>.cls-1{fill:#16478c;}.cls-2{fill:#94c840;}.cls-3{fill:#84b23d;}.cls-4{fill:#174180;}.cls-5{fill:#e6a56c;}.cls-6{fill:#d2d5d5;}.cls-7{fill:#d49068;}.cls-8{fill:#facba4;}.cls-9{fill:#d49168;}.cls-10{fill:#d08956;}.cls-11{fill:#183b73;}.cls-12{fill:#d48e5e;}.cls-13{fill:#ecad78;}.cls-14{fill:#f4faf8;}.cls-15{fill:#e6a66d;}.cls-16{fill:#1a3b43;}.cls-17{fill:#17363e;}.cls-18{fill:#ecebe5;}.cls-19{fill:#d99666;}.cls-20{fill:#d18b5b;}.cls-21{fill:#d5906b;}.cls-22{fill:#db986f;}</style></defs><path class="cls-1" d="M.1,117.81c22.36,10.77,44.82,21.35,67.07,32.36,74,36.56,147.74,73.54,221.92,109.65,10.26,5,14,9.6,8.11,19.75-1,2.73-.15,5.76-1.49,8.48-18.39,37.07-34.86,75.06-54,111.79a4.9,4.9,0,0,1-3.35,1.47c-3.17-.5-5.65-2.49-8.44-3.83-71.6-34.83-143.46-69.13-215.11-103.85C9.29,291,3.23,288.83.1,282.79Z"/><path class="cls-2" d="M705,277.93c-7.17-11.16-3.94-16.62,8.23-22.49,95.84-46.21,191.25-93.31,286.79-140.13V277.79c-2.1,3.78-5.36,6.17-9.17,8.09-72.59,36.67-146.12,71.46-218.92,107.71a23.71,23.71,0,0,1-7,2.58c-5.92-1.07-7.27-6.37-9.4-10.65-15.7-31.5-31.93-62.74-46.44-94.83C707.18,286.5,707.32,281.86,705,277.93Z"/><path class="cls-3" d="M764.85,395.58c2.69-6.43,9.53-6.08,14.49-8.54Q889.56,332.2,1000,277.79V430.28c-58.72,28.34-117.7,56.12-177.4,82.34a16.26,16.26,0,0,1-7.57-7.95c-17-34.66-35-68.81-51.39-103.8A5.8,5.8,0,0,1,764.85,395.58Z"/><path class="cls-4" d="M.1,282.79q92,44.77,184,89.53c16.08,7.81,32.29,15.33,48.45,23,1.4,6.26-3.24,10-6.33,14.11-18.79,25.27-37.67,50.48-57,75.35-7.72,9.94-7.37,10.13,3.68,16.22,4.58,2.53,10.34,3.67,12.5,9.46-1.19,11.3-7.61,6.73-13.15,4.23Q93.09,478.92,13.91,443.1c-4.49-2-9.2-3.56-13.81-5.32Z"/><path class="cls-5" d="M622.62,617.37c-1.3,10.44,2.5,22.06-7.08,30.6-5.62,1.95-8.07-3.06-11.65-5.44-5.2-3.46-9.65-7.89-14.42-11.91-13.64-11.49-23-11.81-37.63-1.85-2.56,1.75-3.26,3.41-1.87,6.16,1.64,3.22,4.61,6.16,2.58,10.31.4,10.77,1,21.6-7.34,30.25-8.14-5.9-18.15-9.42-23.71-18.64,1.84-10.62,7.59-20.07,9-30.92.72-5.6,6.3-7.32,11-9.06,14.79-5.52,23.77-16.16,27.72-31.22,1.86-7.1,4.51-13.36,12.33-15.83,18-5.69,28.08-18.69,31.73-36.6,1.77-8.66,6.24-13.2,14.08-17.09,13.41-6.64,23.41-17,26.1-32.72.63-3.64,1-7.44,3.25-10.62a5.66,5.66,0,0,1,5.27-1.21c19.57,15.38,38.45,31.61,57.39,47.74,4.79,4.08,10.62,8.55,8.52,16.59,4.67,13.1,1.91,24.55-7.7,34.46-19.06-14.65-37.21-30.41-55.93-45.46a25.25,25.25,0,0,0-32.33,1.19c-4.35,4.07.32,5.9,2.33,7.7,11.71,10.53,24.59,19.72,35.8,30.82,2.9,2.87,8.57,4.85,5.09,10.86,3.79,13.65,3.34,26.43-7.6,37-14.27-10.71-27.29-22.9-40.38-34.95-5.91-5.44-11.05-7.85-18.69-3.71-5.7,3.09-12.72,3-19.76,6.06,6.33,8.69,15.22,12.76,22,19.11C616.07,604.08,624.06,607.76,622.62,617.37Z"/><path class="cls-6" d="M765.29,400q24.9,49.2,49.8,98.38c2.42,4.79,5,9.5,7.51,14.25-15,2.52-27.1,11.49-40.24,18-8.63,4.28-14.43,5.89-16.41-6-.55-3.35-1.45-6.62-6.16-4.79a7.7,7.7,0,0,1-1.6-5.43c-1.84-16.63-8.86-31.83-13.36-47.73-4-13.95-9.09-27.56-12.91-41.59-2-7.31.05-12.13,6.77-15.18C747.32,406,755.61,401.13,765.29,400Z"/><path class="cls-6" d="M237.84,400.64a9.65,9.65,0,0,1,2.12-.45c12.65-2.7,22,4.69,31.41,10.91,4.58,3,2.68,8.25,1.38,12.6-7.46,24.93-14.38,50-22.36,74.8-2,5.42-4.69,10.68-4,16.77-.37,2.48-1.4,4.45-4.09,5.09-3.42,12.53-10.45,12.95-20.68,7.08-11.11-6.37-22.85-11.61-34.32-17.34-2.53-3.8-.5-7.23,1-10.6,13.43-30,28.29-59.38,42.09-89.22C232.09,406.56,233.63,402.51,237.84,400.64Z"/><path class="cls-7" d="M760.41,515.11l-.63,4.75-32,16c-6.39-15.51-21.56-22.33-32.75-33.08-10.59-10.16-24-17.24-32.46-29.71,13.44-12.3,31.13-16.95,46.54-25.72,5.59-3.18,11.17-7.66,18.52-5.72,8.11,7.75,11,18.55,15.22,28.27C749.37,484.7,758,498.75,760.41,515.11Z"/><path class="cls-8" d="M335.09,645.19C319,637.67,314.58,624,315.22,607.58c3.89-15,13.93-26.91,21-40.27,4.61-8.65,8.46-18,15.94-24.91,14.45-10.46,27.2-10.93,38.74-1.5,1.68,5.38-1.18,9.76-3.59,14Q363,597.57,339,640.4A17.21,17.21,0,0,1,335.09,645.19Z"/><path class="cls-9" d="M335.09,645.19c4.22-17.18,15.74-30.67,23.51-46.06,9.69-19.18,21-37.55,31.64-56.26,8.48-3.51,11.4,3.78,15.36,8.31a32.55,32.55,0,0,1,6.93,14.16c1.06,6-.7,11.51-2.89,17-12.51,17.14-19.93,37.54-34.17,53.6C362.65,650.63,354.26,652.56,335.09,645.19Z"/><path class="cls-10" d="M675.08,575.48c-8.38-13.67-22.89-20.87-33.75-31.93-.56-.56-1.55-.69-2.14-1.24-5.16-4.71-14.26-9.32-14.43-14.24-.24-6.67,11.26-4.54,15.83-8.62,10.89-9.73,18.08-3.35,26.38,3.79,15.65,13.47,31.76,26.4,47.89,39.31,2.75,2.2,5.11,4.12,5.26,7.82C706.63,585.51,691,581.82,675.08,575.48Z"/><path class="cls-9" d="M435.18,660.38c-12,12.91-21.94,14.67-39.84,7-3.15-3.07-1.48-6.29.17-9.06,14.62-24.59,27.45-50.23,43.22-74.16,4.25-3.48,9.14-3.08,12.2.6,8.54,10.26,18.27,20,20.44,34.11a3.78,3.78,0,0,1-2.36,2.32c-3.13.18-7.41-2.34-8.2,3.48C450.49,635.33,445.92,650.08,435.18,660.38Z"/><path class="cls-8" d="M440.17,585.29q-20.34,36-40.71,72c-1.82,3.21-4.17,6.17-4.12,10.13C382,661.12,378,649,375.47,635.89c9.5-18.48,18.3-37.38,32.08-53.29,2.65-4.52,6.7-6.91,11.79-7.74,4.92-.68,9.91-.91,14.57.9C438,577.35,442.91,579,440.17,585.29Z"/><path class="cls-9" d="M352.55,545.29c-13.2,20.31-22.81,42.77-37.33,62.29-11.2,2.22-22.5,5.91-33.12-1.94-1.79-2.88-.86-5.58.56-8.23,13.14-24.56,27.06-48.67,41.2-72.65a8.06,8.06,0,0,1,2.81-2.42C340.59,524,345.79,535.53,352.55,545.29Z"/><path class="cls-8" d="M327.66,522.8l-45.55,82.84C262.89,594.51,258.7,577.9,270,559.09c3.57-5.92,8.08-11.38,9.76-18.32,1.46-9.56,7.25-16,15-21.17C306.34,514.67,317.78,510.78,327.66,522.8Z"/><path class="cls-11" d="M237.84,400.64Q215.4,448.49,193,496.37c-2.09,4.48-3.81,9.14-5.7,13.73a9.39,9.39,0,0,1-1.83.35c-7-3.51-14-7.22-21.16-10.46-6-2.73-6.74-5-2.27-10.76,23.85-31.06,47.11-62.57,70.58-93.92A9.22,9.22,0,0,1,237.84,400.64Z"/><path class="cls-10" d="M622.62,617.37c-6.85-14.79-22.3-20.46-32.92-31.24-2.17-2.2-7-2.93-5.9-7.11,1-3.89,5.11-3.36,8.39-3.88,4.49-.71,10-.55,13.15-3.15,12.5-10.45,18.95-.94,26.9,6.51,9.36,8.77,19.41,16.81,29.27,25.06,2.92,2.45,5.9,4.7,6,9C654,627.54,638.55,624.85,622.62,617.37Z"/><path class="cls-9" d="M500.06,682.72c-2.69-.13-4.37,1.44-6.32,3.1-12.93,11-22.67,11.49-39,2.16-2.06-3.41-.58-6.42,1.16-9.33,10.46-17.46,20.41-35.24,32.52-51.66,5.27-4.4,9.9-2.35,14.21,1.58,11.67,10.63,13.75,19.4,8.16,34.07-.73,1.92-1.32,3.89-1.92,5.85C505.91,673.22,502.2,677.49,500.06,682.72Z"/><path class="cls-8" d="M490.1,627.77c-11.17,20.43-25.42,39.06-35.38,60.21-12.65-4.86-15-17-19.54-27.6,6.58-13.68,13.08-27.4,25.06-37.47a5.9,5.9,0,0,1,7.25-2.78,14.79,14.79,0,0,0,2.49,0C482.88,614.92,488.52,617.05,490.1,627.77Z"/><path class="cls-10" d="M552.55,645.24c-1.29-6.18-10.1-9.88-8.32-15.57,1.94-6.17,11.31-3.31,16.23-7.1,10.09-7.76,18.53-6.33,27.54,2.66,8.39,8.37,18.3,15.22,27.54,22.74-12.24,16.71-29.85,19.5-46.45,7.6C563.82,651.79,559.84,645.81,552.55,645.24Z"/><path class="cls-12" d="M295,522.71c-7.59,3.89-9.2,12.83-15.22,18.06-12.43-6.93-27-10-37.53-20.41.85-1.71,1.69-3.41,2.53-5.12-.86-5,2.95-8.79,3.66-13.4,1.71-3.14,2.13-7.36,6.79-8,15,4,25.86,15.29,39,22.53C296.51,517.6,297.13,520.32,295,522.71Z"/><path class="cls-10" d="M500.06,682.72c-3.76-8.12,3.42-10.69,7.52-14.82,3.57-5.49,7.51-10.42,14.95-10.24,8,5.45,18.12,8.07,22.68,17.83C532.09,692.59,516.86,695,500.06,682.72Z"/><path class="cls-13" d="M522.53,657.66,507.58,667.9c-2.79-3.59,1.66-5.87,1.61-8.82-.06-4.43,5.59-8.21,4.22-10.63-4.17-7.3-9.9-13.77-15.4-20.24-2-2.35-5.16-2-7.91-.44-3.65-10.62-12.87-6.52-20.12-7.61-3.48-12.92-13-22.23-20-33-1.91-3-6-4.23-9.81-1.82-4.57-11.39-14.64-6.19-22.57-7.47-5-2.68-5.22-8.24-7.56-12.52-4.76-9.1-8.17-19.4-19.8-22.44-13.21-9.24-25.64-6.36-37.69,2.43C342.7,539.52,338,528,327.66,522.8c-10.86-6.16-21.74-6-32.64-.09C283.6,510.49,268.2,504.06,254.6,495c-2.85-4.72-.25-9.1,1.51-13.05,22.63-50.93,44.67-102.12,67.47-153,1.73-3.87,3-9.05,9-8.94,14.11,6.26,26.55,16.42,42.55,18.29,2.94,1.8,7.87,1.2,7.9,6.54-15.66,15.58-18.32,33.37-13.36,54.87,6.06,26.27,10,53.09,14.53,79.74,1,6.15,2.34,12.26,5.1,17.92,1.36,3.41,2.75,6.79,6.58,8.25,23.75,9.86,43-2.54,43.43-27.78.3-19.49-1.38-39.05,2.32-58.44,1.07-5.61,2.52-10.4,8.25-12.89,17.52-7.59,34.64-16.07,53.21-21.17,13.05-3.59,23.92-1.07,35.28,6.19,29.75,19,60,37.21,90.23,55.51,11.28,6.59,24.3,11.23,29,25.38.43,23.43-11,39-32.09,48-4.47,1.91-7.2,3.87-8.19,9.41-3.83,21.26-13.64,38-36.66,43.27-4.85,1.11-6.7,5.29-7.41,9.15-3.65,19.76-14.37,32.92-33.91,38.65-3.62,1.06-6.79,3.05-6.73,7.78C532.71,639.51,527.12,648.42,522.53,657.66Z"/><path class="cls-8" d="M657.56,472.45c-7.94-8.88-17.51-15.73-27.47-22.11-33.37-28.49-72.1-49-108.47-73-5-3.29-9-3.54-13.36.56-15,14.25-34.67,17.19-53.55,22-5.37,1.37-10.53.33-16.88-3.46,3.61,26.1,2.06,50.55,2.14,75,.09,25.56-17.74,40-43.63,35.67-3.55-1.51-6.84-3.35-8.76-6.92-9.68-14.82-8-32.53-12-48.77-4.88-20-6.27-40.81-10.92-60.87-4.76-20.52,2-35.49,17.91-47.66,4.15-6.2,11.1-7,17.43-8.48,31.52-7.36,62.85-15.57,94.77-21.13,5.64,3,11.2,1.4,16.87-.09,26.38-7,49.05.7,65.39,21.38,13.67,17.3,27.31,15.58,43.8,6.78,15.38-8.21,31.09-15.79,46.65-23.65,4.25-1,6.12,2,7.54,5,17.9,37.5,35,75.37,52.19,113.2,1,2.24,1.71,4.74,0,7.11-18.48,6-34.69,16.77-52.26,24.7-4.11,1.86-8.25,3.66-12.38,5.48Z"/><path class="cls-14" d="M727.25,442.93Q699.79,383,672.34,323.05c-1.08-2.36-2.42-4.33-4.82-5.42-5.42-10.86.59-15.76,9.75-19.54,10.8-4.46,23-7.29,27.71-20.16q26.09,51.74,52.19,103.46c2.43,4.8,5.12,9.46,7.68,14.19.15,1.47.29,2.94.44,4.41-6.62,7-16.18,8.2-24.34,12.09-6.59,3.14-8.1,6.24-5.78,13.23,8.49,25.6,16.5,51.37,24.28,77.19,1.17,3.89,5.6,8.08,1,12.61Z"/><path class="cls-14" d="M332.58,320c-10.8,15.45-16.26,33.45-23.82,50.42-18.41,41.35-36.15,83-54.16,124.54l-4.69,7.71c-2.21.54-3.42.09-2.46-2.49,7.14-25,13.73-50.23,21.71-75,2.92-9.05,1.56-13.64-7.24-16.62-7.42-2.52-14.64-5.59-22-8.42,17.59-40.91,37.1-80.91,57.24-120.62,6.35,6.91,15.32,9.38,23.34,13.27C338.77,301.68,338.91,301.39,332.58,320Z"/><path class="cls-15" d="M494.81,313.2c-7.37,8.89-18.57,6.64-28,9-28.06,6.95-56.48,12.44-84.24,20.64-3.32-.11-7,.43-7.48-4.48q36.66-14.83,73.32-29.66C464.67,302.14,480,305.38,494.81,313.2Z"/><path class="cls-6" d="M826,627.87c-17.58,3.52-34.16-1.81-51-3.89-4.48-.55-9-1.12-13.37-2.11a3.81,3.81,0,0,1-3.07-4.65c.35-1.22,2.39-3,3.36-2.85C783.38,618.28,805.52,619,826,627.87Z"/><path class="cls-6" d="M284.47,797.51c-3.76-.54-4.47-2.35-2.5-5.12,9.41-13.23,21.21-24.26,32.93-35.33,1.92-1.81,4.57-2.44,6.56,0a4.15,4.15,0,0,1-.52,5.66q-16.57,16.81-33.35,33.41C286.78,796.9,285.39,797.11,284.47,797.51Z"/><path class="cls-6" d="M588.61,798.16c3.53.4,4.5,3,5.4,5.16,5,12.25,9.84,24.6,14.79,36.88,1.17,2.91,2,6.35-1.06,7.79-4.76,2.25-5.32-2.85-6.4-5.41-5.31-12.58-10.24-25.33-15.28-38C584.81,801.4,585.1,798.9,588.61,798.16Z"/><path class="cls-6" d="M869.85,642.67c-4.44-.29-8.49-2.62-8.7-6.93-.26-5.2,4.06-7.69,9.1-7.75,4.33,0,6.88,2.41,7.06,6.8C877.5,639.74,875,642.39,869.85,642.67Z"/><path class="cls-6" d="M620.54,887.61c-4.37,0-7.3-1.81-7.76-6.23-.56-5.32,3-7.68,7.44-7.66,3.77,0,7.2,2.07,7.1,6.81C627.23,884.93,624.82,887.25,620.54,887.61Z"/><path class="cls-6" d="M258.72,817.83c4.42-.45,7.2,1.95,7.35,6.06.12,3.35-1.88,6.22-6,6.18-4.29,0-6.9-2.16-7.29-6.47C252.4,819.48,254.68,817.72,258.72,817.83Z"/><path class="cls-6" d="M492.54,130.15c-1.6-21,2.1-46.75-1.76-72.48-1.51-10.05,7.09-13.49,15.29-14.33,9.47-1,17.4,6.34,16.25,14.62-4.25,30.68-8.9,61.3-13.38,91.94Q505.72,172,502.55,194c-.42,2.86-.36,5.89-1.34,8.53s-.69,7.76-5.46,6.88c-4.45-.82-3.14-5.28-3.15-8.37C492.5,179,492.54,156.94,492.54,130.15Z"/><path class="cls-6" d="M635.28,209.65c-4.2-1.27-6-3.6-3.2-7.31,9.36-12.12,18.87-24.12,28.42-36.08,1.56-2,3.67-3.76,6.41-2.12,2.15,1.29,2.25,3.54.86,5.38q-14.6,19.29-29.4,38.41C637.69,208.8,636.29,209.11,635.28,209.65Z"/><path class="cls-6" d="M363.49,187.07c1,3.35.5,5-1.5,5.13-1.48.11-3.85-.29-4.43-1.29-8-13.52-16.82-26.61-22.19-41.51-.65-1.81-.63-4.5,1.81-5.21a4.87,4.87,0,0,1,4.24,1.52C350.9,158.94,356.28,174.35,363.49,187.07Z"/><path class="cls-6" d="M320.67,106c3.88,1.31,7.77,3.07,7.68,7.36-.1,5-4.15,6.88-8.71,6.76-4.38-.11-7.38-2.49-6.51-7.13A8.32,8.32,0,0,1,320.67,106Z"/><path class="cls-6" d="M430.66,932.65c-12.51.43-18.6-6.93-15.86-17.94q17.74-71,35.66-142c.61-2.41,1.51-4.75,2.35-7.09s2.22-4.84,5.2-4.33c3.46.59,4.46,3.31,4.05,6.58-3.83,30.67-7.82,61.32-11.46,92-2.13,18-4.17,36.11-5.39,54.22C444.49,924.81,440.4,931.38,430.66,932.65Z"/><path class="cls-6" d="M97.62,714.16c-.29-7.16,4.6-10.32,10.16-12.64Q166.34,677.1,225,652.81c3.06-1.27,6.4-3.61,8.62.62s-1.73,5.66-4.5,7.33c-36.58,22.06-73,44.36-109.85,66C108.63,733,97.56,725.9,97.62,714.16Z"/><path class="cls-6" d="M774.06,825.24c-4.87.5-7.93-2.56-11-6.32-24.77-30.54-49.7-60.95-74.5-91.47-2.44-3-7.34-6.48-3.09-10.38,3.8-3.49,7.83.8,10.73,3.37,17.68,15.68,35.08,31.68,52.71,47.42,11.74,10.48,23.7,20.71,35.55,31.07,4.37,3.81,10.46,7.7,7.2,14.27S783.5,826,774.06,825.24Z"/><path class="cls-6" d="M693.66,136.52c-1.52,3.57-3.88,6.44-8.21,5.83-3.44-.48-6.51-2.75-6.29-6.42.27-4.47,3.7-5.82,8-5.63C691.25,130.48,692.91,132.82,693.66,136.52Z"/><path class="cls-16" d="M782.89,498.46c-5.85-.15-9.48-3.48-9.67-9s3.2-9.28,9.15-9.46,9.37,3.23,9.6,8.92S788.81,497.94,782.89,498.46Z"/><path class="cls-17" d="M235.12,491.38c0,7.05-3.26,10.72-8.84,11.15-5.76.44-9.48-3.1-9.9-8.92-.43-6,3.18-9.6,8.78-10S234.17,486.8,235.12,491.38Z"/><path class="cls-18" d="M247.45,500.22l2.46,2.49c-.31,4.74-3,8.5-5.11,12.53C240.55,509.33,244.87,504.93,247.45,500.22Z"/><path class="cls-19" d="M410,565.3c3.33,3.69,7,7.19,7.56,12.52l-10.05,4.78Z"/><path class="cls-20" d="M467.49,620.13l-7.25,2.78c-2.16-1.31-2.94-3.33-1-5C462.76,614.82,465.15,617.78,467.49,620.13Z"/><path class="cls-21" d="M395.37,505c30.73.89,41.65-10.26,42.35-41,.57-24.77-2-49.4-2-75.26,6.46,12.76,15.82,8.83,25.1,6.46,18.06-4.6,36.46-8.33,49.3-23.76,2.84-3.42,5.82-4,9.46-.52,17.44,16.53,39.81,25.3,59.85,37.75,18.71,11.62,35.18,26.05,50.66,41.64-16.41-6.29-30.08-17.34-45-26.16-18.6-11-36.9-22.43-55.15-34-13.76-8.7-26.4-1-39.11,2.48-8.34,2.27-16,6.82-24.16,10-21.54,8.33-23.36,10.5-24,33.73-.36,13.74-.08,27.5-.09,41.25,0,29.33-23.31,43.36-50,30.12C392.1,505.39,392.61,504.06,395.37,505Z"/><path class="cls-22" d="M395.37,505l-2.79,2.72a7.46,7.46,0,0,1-5-7.64Z"/></svg>