<svg id="Layer_1" data-name="Layer 1" xmlns="http://www.w3.org/2000/svg" viewBox="0 0 842.49 263.78"><defs><style>.cls-1{fill:#7eba2a;}.cls-2{fill:#243882;}.cls-3{fill:#706f6f;}</style></defs><polygon class="cls-1" points="217.01 47.94 206.78 27.44 186.05 40.63 206.54 66.49 213.95 75.83 220.31 68 274.44 1.32 217.01 47.94"/><polygon class="cls-2" points="733.53 153.46 706.98 195.61 685.6 82.93 726 82.93 733.53 153.46"/><path class="cls-2" d="M-.6,364.46,34.19,197.72H112q16.11,0,27,3T155,209.4a30.89,30.89,0,0,1,7.12,11.33A43.49,43.49,0,0,1,164,234.15q0,16.59-8.06,27.21T133.2,275.25v.47a29.57,29.57,0,0,1,17.17,11.91,35.18,35.18,0,0,1,6.42,20.78q0,25.69-20,40.87T80.89,364.46Zm58.14-71.93L49.6,330.36H83.7q13.53,0,21.6-4.43t8-16.82q0-7.23-4.32-11.09a18.28,18.28,0,0,0-9-4.67,71.64,71.64,0,0,0-11.91-.82Zm12.61-60.71-6.54,31.52H94.44q13.53,0,19.85-4.32t6.3-14.13q0-13.06-22-13.07Z" transform="translate(0.6 -160.33)"/><polygon class="cls-2" points="168.13 204.13 207.83 204.13 233.05 82.94 193.35 82.94 168.13 204.13"/><path class="cls-2" d="M233.38,368h39.69q0,7,4.44,10.74T289,382.44a40.12,40.12,0,0,0,9.11-.94,16.38,16.38,0,0,0,6.89-3.38,46,46,0,0,0,4.67-4.44,19.46,19.46,0,0,0,3.27-6.54q1.51-4.54,2.22-6.77T317,352.2c.77-4,1.32-6.66,1.63-8.06h-.47q-4.44,7-13.42,10.74a47.43,47.43,0,0,1-18.33,3.74q-20.33,0-32.93-13.08t-12.61-33.62a91.27,91.27,0,0,1,6.42-34.1,64.77,64.77,0,0,1,20.2-27.09,49.88,49.88,0,0,1,32-11q28.95,0,37.13,20.55h.47l3.27-17.05h38.06l-20.32,97.85q-7.94,38.29-23,52.07T286.62,407a102.61,102.61,0,0,1-19.5-1.75,62.59,62.59,0,0,1-17.05-6,29.78,29.78,0,0,1-12.49-12.14Q233.14,379.16,233.38,368Zm66.55-36.2q13.77,0,21.37-10.86t7.58-26q0-11.22-4.78-18T310,270.11q-14.25,0-21.83,11.45t-7.59,26.62q0,10.5,4.67,17.05T299.93,331.76Z" transform="translate(0.6 -160.33)"/><path class="cls-2" d="M378.16,364.46l35-166.74h82q22.19,0,35.14,13.67t13,36.07q0,30.36-20,46.71t-51.73,16.34H433l-11.44,53.95Zm71-131-8.65,41.34h30.6q28.71,0,28.72-23.36,0-10.74-6.89-14.36t-19.27-3.62Z" transform="translate(0.6 -160.33)"/><path class="cls-2" d="M614.72,239.76q-51.39,0-59.31,40.86H593q1.15-8.16,6.53-11.68t15.41-3.49q16.8,0,16.82,11.68a17.93,17.93,0,0,1-.58,4.67,8.61,8.61,0,0,1-2,3.6,36.08,36.08,0,0,1-2.68,2.7,9.33,9.33,0,0,1-3.74,1.86l-4.08,1.18a33.62,33.62,0,0,1-4.78.81c-2.11.23-3.72.39-4.81.46s-2.76.15-5,.25-3.78.11-4.55.11q-10.51.92-18.21,2.11A89.28,89.28,0,0,0,565.2,299a45.54,45.54,0,0,0-13.65,7.12,31.7,31.7,0,0,0-8.66,11.31,38.29,38.29,0,0,0-3.38,16.48q0,17.76,10.75,25.92T579,368q26.4,0,36.67-15.17h.47v3.74a36.19,36.19,0,0,0,.93,7.94h39a29.49,29.49,0,0,1-1.64-9.34q0-7.72,3.74-22.65c.3-1.41,1.23-5.33,2.79-11.79s2.93-12.22,4.08-17.28,2.32-10.72,3.4-16.93a91.8,91.8,0,0,0,1.64-14.94Q670.06,239.76,614.72,239.76Zm9.45,77.06a54.06,54.06,0,0,1-2.93,8.87,33.36,33.36,0,0,1-5.25,8.89,25.39,25.39,0,0,1-8.53,6.3,27.93,27.93,0,0,1-12.13,2.56q-16.12,0-16.12-12.61c0-5.3,1.95-9.29,5.85-12a25.22,25.22,0,0,1,13.2-4.54c4.89-.32,10.11-.86,15.64-1.65s9.29-2,11.31-3.72h.23A75.6,75.6,0,0,1,624.17,316.82Z" transform="translate(0.6 -160.33)"/><polygon class="cls-2" points="733.55 153.44 733.53 153.46 706.98 195.61 685.6 82.93 726 82.93 733.55 153.44"/><path class="cls-1" d="M818.17,160.33l-58.78,61.74L780,227.15l-.36.66s-.39,1.12-1.18,3.21C771.1,251.16,729,360.63,674.05,404.33c-10.13,8.08-20.69,13.9-31.56,16.52,0,0,75.86,43,179-183.51l20.38,5Z" transform="translate(0.6 -160.33)"/><path class="cls-3" d="M345.82,391.69c0,9.15,11.4,6.08,11.4,12,0,3.11-2.42,4.86-6,4.86a9.61,9.61,0,0,1-7.2-3.26l-1.4,3.26a11.27,11.27,0,0,0,8.32,3.47c5.52,0,9.4-3.35,9.4-8.9,0-8.69-11.4-5.83-11.4-11.84,0-3,2.32-5,6-5a8.84,8.84,0,0,1,6,2.29l1.27-3.35a11.05,11.05,0,0,0-7.14-2.41C349.63,382.83,345.82,386.22,345.82,391.69Z" transform="translate(0.6 -160.33)"/><polygon class="cls-3" points="364.57 251.41 367.62 251.41 370.96 229.77 367.91 229.77 364.57 251.41"/><path class="cls-3" d="M370,380.83c-1.3,0-2.19,1.23-2.19,2.74a2.14,2.14,0,0,0,1.91,2.36c1.3,0,2.22-1.14,2.22-2.81A2.13,2.13,0,0,0,370,380.83Z" transform="translate(0.6 -160.33)"/><path class="cls-3" d="M397.37,389.9a8,8,0,0,0-6.86,3.83,5.34,5.34,0,0,0-5.39-3.83,7.06,7.06,0,0,0-5.85,2.89l.41-2.69h-2.92l-3.33,21.63h3.05l1.78-11.43c.73-4.65,2.79-6.89,5.9-6.89,2.54,0,3.75,1.59,3.75,4.36a12.16,12.16,0,0,1-.16,1.84l-1.9,12.12h3l1.81-11.55c.74-4.57,2.83-6.77,5.91-6.77,2.51,0,3.72,1.55,3.72,4.32a14.9,14.9,0,0,1-.16,1.88l-1.88,12.12h3l1.88-12.12a20.91,20.91,0,0,0,.22-2.57C403.44,392.47,401.18,389.9,397.37,389.9Z" transform="translate(0.6 -160.33)"/><path class="cls-3" d="M419.36,389.9a7.46,7.46,0,0,0-5.94,2.89l.42-2.69h-2.92l-4.58,29.55h3.05l1.78-11.59a6.22,6.22,0,0,0,6.1,3.92c5.46,0,9.52-5.35,9.52-12.78C426.79,393.36,423.65,389.9,419.36,389.9Zm-2.22,18.65c-3.21,0-5-2.29-5-6.08,0-5.35,2.77-9.14,6.58-9.14,3.2,0,5,2.24,5,6.08C423.71,404.75,420.92,408.55,417.14,408.55Z" transform="translate(0.6 -160.33)"/><polygon class="cls-3" points="430.43 251.41 433.48 251.41 438.18 221.12 435.13 221.12 430.43 251.41"/><path class="cls-3" d="M448.75,389.9c-5.49,0-9.49,5.34-9.49,12.69,0,5.72,3.08,9.39,8.06,9.39a8.82,8.82,0,0,0,6.77-3.1l-1.3-2.82a6.71,6.71,0,0,1-5.21,2.49c-3.62,0-5.34-2.2-5.34-6.16v-.25h13.82a21.91,21.91,0,0,0,.22-2.9C456.28,393.41,453.29,389.9,448.75,389.9Zm-6.19,9.39c.76-3.76,3-6.13,6.06-6.13s5,2.16,4.8,6.13Z" transform="translate(0.6 -160.33)"/><path class="cls-3" d="M460.49,406.39c-1.24,0-2.25,1.22-2.25,3,0,1.47.89,2.61,2,2.61s2.22-1.18,2.22-2.94C462.49,407.49,461.64,406.39,460.49,406.39Z" transform="translate(0.6 -160.33)"/><polygon class="cls-3" points="487.7 226.39 488.24 222.84 472.56 222.84 468.11 251.41 471.29 251.41 473.06 239.86 484.24 239.86 484.78 236.35 473.6 236.35 475.16 226.39 487.7 226.39"/><path class="cls-3" d="M502.87,393.77a6.13,6.13,0,0,0-6.06-3.87c-5.47,0-9.53,5.3-9.53,12.73,0,5.84,3.14,9.35,7.43,9.35a7.47,7.47,0,0,0,5.94-2.9l-.41,2.65h2.92l3.33-21.63h-3.05Zm-7.49,14.78c-3.21,0-5-2.29-5-6.08,0-5.35,2.79-9.14,6.57-9.14,3.21,0,5,2.24,5,6.08C502,404.75,499.19,408.55,495.38,408.55Z" transform="translate(0.6 -160.33)"/><path class="cls-3" d="M517.56,393.24a7.43,7.43,0,0,1,5,1.72l1.2-3.1a9.12,9.12,0,0,0-5.87-2c-4.61,0-7.62,2.73-7.62,7,0,7.3,9.33,4.28,9.33,8.49,0,2-1.49,3.18-4.41,3.18a8.38,8.38,0,0,1-5.84-2.2l-1.37,3.1a10,10,0,0,0,6.92,2.49c4.58,0,7.72-2.53,7.72-7,0-7.19-9.3-4.12-9.3-8.49C513.28,394.59,514.74,393.24,517.56,393.24Z" transform="translate(0.6 -160.33)"/><path class="cls-3" d="M533.62,385.36h-3l-.73,4.74H527l-.47,3.23h2.86l-1.81,11.59a9.55,9.55,0,0,0-.13,1.63c0,3.39,1.81,5.43,4.45,5.43a5.72,5.72,0,0,0,3.9-1.35l-.63-3a3.61,3.61,0,0,1-2.42,1c-1.52,0-2.22-1-2.22-2.69a6.51,6.51,0,0,1,.1-1.14l1.81-11.51h4.82l.51-3.23h-4.83Z" transform="translate(0.6 -160.33)"/><path class="cls-3" d="M541.33,406.39c-1.24,0-2.25,1.22-2.25,3,0,1.47.89,2.61,2,2.61s2.22-1.18,2.22-2.94C543.33,407.49,542.48,406.39,541.33,406.39Z" transform="translate(0.6 -160.33)"/><path class="cls-3" d="M550.41,391.69c0,9.15,11.4,6.08,11.4,12,0,3.11-2.41,4.86-6,4.86a9.63,9.63,0,0,1-7.21-3.26l-1.4,3.26a11.29,11.29,0,0,0,8.32,3.47c5.53,0,9.4-3.35,9.4-8.9,0-8.69-11.4-5.83-11.4-11.84,0-3,2.32-5,6-5a8.87,8.87,0,0,1,6,2.29l1.27-3.35a11.08,11.08,0,0,0-7.15-2.41C554.22,382.83,550.41,386.22,550.41,391.69Z" transform="translate(0.6 -160.33)"/><path class="cls-3" d="M578,389.9c-5.5,0-9.5,5.34-9.5,12.69,0,5.72,3.08,9.39,8.07,9.39a8.79,8.79,0,0,0,6.76-3.1l-1.3-2.82a6.69,6.69,0,0,1-5.21,2.49c-3.62,0-5.33-2.2-5.33-6.16v-.25h13.81a20.34,20.34,0,0,0,.22-2.9C585.55,393.41,582.57,389.9,578,389.9Zm-6.19,9.39c.76-3.76,3-6.13,6.06-6.13s5,2.16,4.8,6.13Z" transform="translate(0.6 -160.33)"/><path class="cls-3" d="M598.21,393.33a4.64,4.64,0,0,1,4.58,3.1l2.57-1.84a7,7,0,0,0-6.92-4.69c-5.78,0-9.91,5.42-9.91,12.73,0,5.64,3.11,9.35,8,9.35a8.47,8.47,0,0,0,7.37-4.45l-2.22-2a5.71,5.71,0,0,1-5,3.06c-3.24,0-5-2.29-5-6.08C591.61,397.12,594.4,393.33,598.21,393.33Z" transform="translate(0.6 -160.33)"/><path class="cls-3" d="M621.48,401.57c-.73,4.61-3,6.9-6.16,6.9-2.57,0-3.84-1.59-3.84-4.37a12.14,12.14,0,0,1,.16-1.83l1.87-12.17h-3l-1.87,12.12a17.35,17.35,0,0,0-.19,2.49c0,4.62,2.35,7.27,6,7.27a7.38,7.38,0,0,0,6-3l-.42,2.77H623l3.33-21.63h-3Z" transform="translate(0.6 -160.33)"/><path class="cls-3" d="M635.16,393.33l.47-3.23h-2.92l-3.33,21.63h3l1.68-10.81c.76-5,3-7.27,6.35-7.27a5.16,5.16,0,0,1,.8,0l.57-3.79C638.81,389.9,636.68,390.87,635.16,393.33Z" transform="translate(0.6 -160.33)"/><path class="cls-3" d="M659.38,402.14a20.34,20.34,0,0,0,.22-2.9c0-5.83-3-9.34-7.52-9.34-5.5,0-9.5,5.34-9.5,12.69,0,5.72,3.08,9.39,8.07,9.39a8.79,8.79,0,0,0,6.76-3.1l-1.3-2.82a6.69,6.69,0,0,1-5.21,2.49c-3.62,0-5.33-2.2-5.33-6.16v-.25Zm-7.43-9c3,0,4.95,2.16,4.8,6.13H645.88C646.65,395.53,648.9,393.16,652,393.16Z" transform="translate(0.6 -160.33)"/></svg>